<svg t="1610777704761" width="12" height="12" viewBox="0 0 1024 1024" version="1.1" xmlns="http://www.w3.org/2000/svg" p-id="3275" xmlns:xlink="http://www.w3.org/1999/xlink" width="200" height="200"><defs><style type="text/css"></style></defs><path d="M362.666667 192m-64 0a64 64 0 1 0 128 0 64 64 0 1 0-128 0Z" p-id="3276"></path><path d="M661.333333 192m-64 0a64 64 0 1 0 128 0 64 64 0 1 0-128 0Z" p-id="3277"></path><path d="M362.666667 512m-64 0a64 64 0 1 0 128 0 64 64 0 1 0-128 0Z" p-id="3278"></path><path d="M661.333333 512m-64 0a64 64 0 1 0 128 0 64 64 0 1 0-128 0Z" p-id="3279"></path><path d="M362.666667 832m-64 0a64 64 0 1 0 128 0 64 64 0 1 0-128 0Z" p-id="3280"></path><path d="M661.333333 832m-64 0a64 64 0 1 0 128 0 64 64 0 1 0-128 0Z" p-id="3281"></path></svg>