<svg width="18" t="1576900368370" class="icon" viewBox="0 0 1024 1024" version="1.1" xmlns="http://www.w3.org/2000/svg" p-id="1117" width="200" height="200"><path d="M675.399487 297.001321 348.600513 297.001321c-16.406668 0-29.708626 13.301957-29.708626 29.708626s13.301957 29.708626 29.708626 29.708626l326.798974 0c16.406668 0 29.709649-13.301957 29.709649-29.708626S691.806155 297.001321 675.399487 297.001321z" p-id="1118"></path><path d="M675.399487 445.561845 348.600513 445.561845c-16.406668 0-29.708626 13.301957-29.708626 29.708626s13.301957 29.708626 29.708626 29.708626l326.798974 0c16.406668 0 29.709649-13.301957 29.709649-29.708626S691.806155 445.561845 675.399487 445.561845z" p-id="1119"></path><path d="M779.381723 66.36243 244.618277 66.36243c-49.149397 0-89.1269 40.110533-89.1269 89.418542l0 712.423729c0 49.310056 39.978527 89.432869 89.1269 89.432869 6.578836 0 12.974499-2.190899 18.183128-6.209422 71.116711-55.037501 202.079438-142.351102 250.827699-142.351102 47.959292 0.128937 177.225377 87.313601 247.445672 142.248771 5.219885 4.091178 11.668761 6.311753 18.304901 6.311753 49.14735 0 89.1269-40.123836 89.1269-89.432869L868.506577 155.780973C868.508623 106.472963 828.529073 66.36243 779.381723 66.36243zM809.090349 868.203678c0 13.548574-8.943696 25.040303-21.179368 28.752858-48.370661-37.092803-198.24511-147.096173-274.365788-147.297764-76.689636 0-228.601488 110.321618-277.377378 147.32744-12.280698-3.683902-21.258163-15.20326-21.258163-28.782533L214.909651 155.780973c0-16.535605 13.32447-30.000268 29.708626-30.000268l534.763446 0c16.384156 0 29.708626 13.464663 29.708626 30.000268L809.090349 868.203678z" p-id="1120"></path></svg>