<svg width="18" height="18" t="1580984968921" class="icon" viewBox="0 0 1024 1024" version="1.1" xmlns="http://www.w3.org/2000/svg" p-id="2492" width="200" height="200"><path d="M896 490.666667v42.666666a21.333333 21.333333 0 0 1-21.333333 21.333334h-554.666667a21.333333 21.333333 0 0 1-21.333333-21.333334v-42.666666a21.333333 21.333333 0 0 1 21.333333-21.333334h554.666667a21.333333 21.333333 0 0 1 21.333333 21.333334z m-21.333333 234.666666h-170.666667a21.333333 21.333333 0 0 0-21.333333 21.333334v42.666666a21.333333 21.333333 0 0 0 21.333333 21.333334h170.666667a21.333333 21.333333 0 0 0 21.333333-21.333334v-42.666666a21.333333 21.333333 0 0 0-21.333333-21.333334z m0-512H426.666667a298.666667 298.666667 0 0 0 0 597.333334v85.333333a21.333333 21.333333 0 0 0 36.266666 14.933333l128-128a21.76 21.76 0 0 0 0-30.293333l-128-128A21.333333 21.333333 0 0 0 426.666667 640v85.333333a213.333333 213.333333 0 0 1 0-426.666666h448a21.333333 21.333333 0 0 0 21.333333-21.333334v-42.666666a21.333333 21.333333 0 0 0-21.333333-21.333334z" p-id="2493"></path></svg>